<mxfile host="app.diagrams.net" agent="Mozilla/5.0 (Windows NT 10.0; Win64; x64) AppleWebKit/537.36 (KHTML, like Gecko) Chrome/133.0.0.0 Safari/537.36 OPR/118.0.0.0 (Edition Yx GX)" version="27.0.9" pages="3">
  <diagram name="Страница — 1" id="Znkg8Cd5GS9YN74z9EgL">
    <mxGraphModel dx="1174" dy="788" grid="1" gridSize="10" guides="1" tooltips="1" connect="1" arrows="1" fold="1" page="1" pageScale="1" pageWidth="850" pageHeight="1100" math="0" shadow="0">
      <root>
        <mxCell id="0" />
        <mxCell id="1" parent="0" />
        <mxCell id="D8E67NKvFNB2xhjaw_b6-40" style="edgeStyle=orthogonalEdgeStyle;rounded=0;orthogonalLoop=1;jettySize=auto;html=1;exitX=0.5;exitY=1;exitDx=0;exitDy=0;" edge="1" parent="1" source="D8E67NKvFNB2xhjaw_b6-41" target="D8E67NKvFNB2xhjaw_b6-43">
          <mxGeometry relative="1" as="geometry" />
        </mxCell>
        <mxCell id="D8E67NKvFNB2xhjaw_b6-41" value="Начало" style="ellipse;whiteSpace=wrap;html=1;" vertex="1" parent="1">
          <mxGeometry x="576.2353084788604" y="329.0588235294117" width="150" height="50" as="geometry" />
        </mxCell>
        <mxCell id="D8E67NKvFNB2xhjaw_b6-42" style="edgeStyle=orthogonalEdgeStyle;rounded=0;orthogonalLoop=1;jettySize=auto;html=1;exitX=0.5;exitY=1;exitDx=0;exitDy=0;entryX=0.5;entryY=0;entryDx=0;entryDy=0;" edge="1" parent="1" source="D8E67NKvFNB2xhjaw_b6-43" target="D8E67NKvFNB2xhjaw_b6-47">
          <mxGeometry relative="1" as="geometry" />
        </mxCell>
        <mxCell id="D8E67NKvFNB2xhjaw_b6-43" value="Главное меню приложения" style="rounded=0;whiteSpace=wrap;html=1;" vertex="1" parent="1">
          <mxGeometry x="578.7353084788604" y="419.0588235294117" width="145" height="60" as="geometry" />
        </mxCell>
        <mxCell id="D8E67NKvFNB2xhjaw_b6-44" style="edgeStyle=orthogonalEdgeStyle;rounded=0;orthogonalLoop=1;jettySize=auto;html=1;exitX=1;exitY=0.5;exitDx=0;exitDy=0;" edge="1" parent="1" source="D8E67NKvFNB2xhjaw_b6-47" target="D8E67NKvFNB2xhjaw_b6-56">
          <mxGeometry relative="1" as="geometry" />
        </mxCell>
        <mxCell id="D8E67NKvFNB2xhjaw_b6-45" style="edgeStyle=orthogonalEdgeStyle;rounded=0;orthogonalLoop=1;jettySize=auto;html=1;exitX=0.5;exitY=1;exitDx=0;exitDy=0;" edge="1" parent="1" source="D8E67NKvFNB2xhjaw_b6-47" target="D8E67NKvFNB2xhjaw_b6-53">
          <mxGeometry relative="1" as="geometry" />
        </mxCell>
        <mxCell id="D8E67NKvFNB2xhjaw_b6-46" style="edgeStyle=orthogonalEdgeStyle;rounded=0;orthogonalLoop=1;jettySize=auto;html=1;exitX=0;exitY=0.5;exitDx=0;exitDy=0;" edge="1" parent="1" source="D8E67NKvFNB2xhjaw_b6-47" target="D8E67NKvFNB2xhjaw_b6-50">
          <mxGeometry relative="1" as="geometry" />
        </mxCell>
        <mxCell id="D8E67NKvFNB2xhjaw_b6-47" value="Выбор пользователем необходимых настроек" style="rounded=0;whiteSpace=wrap;html=1;" vertex="1" parent="1">
          <mxGeometry x="578.7353084788604" y="519.0588235294117" width="145" height="60" as="geometry" />
        </mxCell>
        <mxCell id="D8E67NKvFNB2xhjaw_b6-48" style="edgeStyle=orthogonalEdgeStyle;rounded=0;orthogonalLoop=1;jettySize=auto;html=1;exitX=0.5;exitY=1;exitDx=0;exitDy=0;" edge="1" parent="1" source="D8E67NKvFNB2xhjaw_b6-50" target="D8E67NKvFNB2xhjaw_b6-71">
          <mxGeometry relative="1" as="geometry" />
        </mxCell>
        <mxCell id="D8E67NKvFNB2xhjaw_b6-49" style="edgeStyle=orthogonalEdgeStyle;rounded=0;orthogonalLoop=1;jettySize=auto;html=1;exitX=0.5;exitY=1;exitDx=0;exitDy=0;" edge="1" parent="1" source="D8E67NKvFNB2xhjaw_b6-50" target="D8E67NKvFNB2xhjaw_b6-73">
          <mxGeometry relative="1" as="geometry" />
        </mxCell>
        <mxCell id="D8E67NKvFNB2xhjaw_b6-50" value="Выбор языка" style="rounded=0;whiteSpace=wrap;html=1;" vertex="1" parent="1">
          <mxGeometry x="298.73530847886036" y="619.0588235294117" width="145" height="60" as="geometry" />
        </mxCell>
        <mxCell id="D8E67NKvFNB2xhjaw_b6-51" style="edgeStyle=orthogonalEdgeStyle;rounded=0;orthogonalLoop=1;jettySize=auto;html=1;exitX=0.5;exitY=1;exitDx=0;exitDy=0;entryX=0.5;entryY=0;entryDx=0;entryDy=0;" edge="1" parent="1" source="D8E67NKvFNB2xhjaw_b6-53" target="D8E67NKvFNB2xhjaw_b6-64">
          <mxGeometry relative="1" as="geometry" />
        </mxCell>
        <mxCell id="D8E67NKvFNB2xhjaw_b6-52" style="edgeStyle=orthogonalEdgeStyle;rounded=0;orthogonalLoop=1;jettySize=auto;html=1;exitX=0.5;exitY=1;exitDx=0;exitDy=0;entryX=0.5;entryY=0;entryDx=0;entryDy=0;" edge="1" parent="1" source="D8E67NKvFNB2xhjaw_b6-53" target="D8E67NKvFNB2xhjaw_b6-66">
          <mxGeometry relative="1" as="geometry" />
        </mxCell>
        <mxCell id="D8E67NKvFNB2xhjaw_b6-53" value="Выбор упражнения" style="rounded=0;whiteSpace=wrap;html=1;" vertex="1" parent="1">
          <mxGeometry x="578.7353084788604" y="619.0588235294117" width="145" height="60" as="geometry" />
        </mxCell>
        <mxCell id="D8E67NKvFNB2xhjaw_b6-54" style="edgeStyle=orthogonalEdgeStyle;rounded=0;orthogonalLoop=1;jettySize=auto;html=1;exitX=0.5;exitY=1;exitDx=0;exitDy=0;entryX=0.5;entryY=0;entryDx=0;entryDy=0;" edge="1" parent="1" source="D8E67NKvFNB2xhjaw_b6-56" target="D8E67NKvFNB2xhjaw_b6-60">
          <mxGeometry relative="1" as="geometry" />
        </mxCell>
        <mxCell id="D8E67NKvFNB2xhjaw_b6-55" style="edgeStyle=orthogonalEdgeStyle;rounded=0;orthogonalLoop=1;jettySize=auto;html=1;exitX=0.5;exitY=1;exitDx=0;exitDy=0;" edge="1" parent="1" source="D8E67NKvFNB2xhjaw_b6-56" target="D8E67NKvFNB2xhjaw_b6-62">
          <mxGeometry relative="1" as="geometry" />
        </mxCell>
        <mxCell id="D8E67NKvFNB2xhjaw_b6-56" value="Подсветка клавиатуры" style="rounded=0;whiteSpace=wrap;html=1;" vertex="1" parent="1">
          <mxGeometry x="856.2353084788604" y="619.0588235294117" width="145" height="60" as="geometry" />
        </mxCell>
        <mxCell id="D8E67NKvFNB2xhjaw_b6-57" style="edgeStyle=orthogonalEdgeStyle;rounded=0;orthogonalLoop=1;jettySize=auto;html=1;exitX=0.5;exitY=1;exitDx=0;exitDy=0;" edge="1" parent="1" source="D8E67NKvFNB2xhjaw_b6-58" target="D8E67NKvFNB2xhjaw_b6-68">
          <mxGeometry relative="1" as="geometry" />
        </mxCell>
        <mxCell id="D8E67NKvFNB2xhjaw_b6-58" value="Выбор режима буквы" style="rounded=0;whiteSpace=wrap;html=1;" vertex="1" parent="1">
          <mxGeometry x="488.73530847886036" y="729.0588235294117" width="90" height="60" as="geometry" />
        </mxCell>
        <mxCell id="D8E67NKvFNB2xhjaw_b6-59" style="edgeStyle=orthogonalEdgeStyle;rounded=0;orthogonalLoop=1;jettySize=auto;html=1;exitX=0.5;exitY=1;exitDx=0;exitDy=0;" edge="1" parent="1" source="D8E67NKvFNB2xhjaw_b6-60" target="D8E67NKvFNB2xhjaw_b6-68">
          <mxGeometry relative="1" as="geometry" />
        </mxCell>
        <mxCell id="D8E67NKvFNB2xhjaw_b6-60" value="Включить" style="rounded=0;whiteSpace=wrap;html=1;" vertex="1" parent="1">
          <mxGeometry x="846.2353084788604" y="729.0588235294117" width="77.5" height="60" as="geometry" />
        </mxCell>
        <mxCell id="D8E67NKvFNB2xhjaw_b6-61" style="edgeStyle=orthogonalEdgeStyle;rounded=0;orthogonalLoop=1;jettySize=auto;html=1;exitX=0.5;exitY=1;exitDx=0;exitDy=0;" edge="1" parent="1" source="D8E67NKvFNB2xhjaw_b6-62" target="D8E67NKvFNB2xhjaw_b6-68">
          <mxGeometry relative="1" as="geometry" />
        </mxCell>
        <mxCell id="D8E67NKvFNB2xhjaw_b6-62" value="Выключить" style="rounded=0;whiteSpace=wrap;html=1;" vertex="1" parent="1">
          <mxGeometry x="936.2353084788604" y="729.0588235294117" width="80" height="60" as="geometry" />
        </mxCell>
        <mxCell id="D8E67NKvFNB2xhjaw_b6-63" style="edgeStyle=orthogonalEdgeStyle;rounded=0;orthogonalLoop=1;jettySize=auto;html=1;exitX=0.5;exitY=1;exitDx=0;exitDy=0;" edge="1" parent="1" source="D8E67NKvFNB2xhjaw_b6-64">
          <mxGeometry relative="1" as="geometry">
            <mxPoint x="651.2353084788604" y="879.0588235294117" as="targetPoint" />
          </mxGeometry>
        </mxCell>
        <mxCell id="D8E67NKvFNB2xhjaw_b6-64" value="Выбор режима слова" style="rounded=0;whiteSpace=wrap;html=1;" vertex="1" parent="1">
          <mxGeometry x="604.9853084788604" y="729.0588235294117" width="92.5" height="60" as="geometry" />
        </mxCell>
        <mxCell id="D8E67NKvFNB2xhjaw_b6-65" style="edgeStyle=orthogonalEdgeStyle;rounded=0;orthogonalLoop=1;jettySize=auto;html=1;exitX=0.5;exitY=1;exitDx=0;exitDy=0;" edge="1" parent="1" source="D8E67NKvFNB2xhjaw_b6-66" target="D8E67NKvFNB2xhjaw_b6-68">
          <mxGeometry relative="1" as="geometry" />
        </mxCell>
        <mxCell id="D8E67NKvFNB2xhjaw_b6-66" value="Выбор режима текст" style="rounded=0;whiteSpace=wrap;html=1;" vertex="1" parent="1">
          <mxGeometry x="723.7353084788604" y="729.0588235294117" width="92.5" height="60" as="geometry" />
        </mxCell>
        <mxCell id="D8E67NKvFNB2xhjaw_b6-67" style="edgeStyle=orthogonalEdgeStyle;rounded=0;orthogonalLoop=1;jettySize=auto;html=1;exitX=0.5;exitY=1;exitDx=0;exitDy=0;" edge="1" parent="1" source="D8E67NKvFNB2xhjaw_b6-68" target="D8E67NKvFNB2xhjaw_b6-75">
          <mxGeometry relative="1" as="geometry" />
        </mxCell>
        <mxCell id="D8E67NKvFNB2xhjaw_b6-68" value="Выполнение выбранного упражнения" style="rounded=0;whiteSpace=wrap;html=1;" vertex="1" parent="1">
          <mxGeometry x="578.7353084788604" y="869.0588235294117" width="145" height="60" as="geometry" />
        </mxCell>
        <mxCell id="D8E67NKvFNB2xhjaw_b6-69" style="edgeStyle=orthogonalEdgeStyle;rounded=0;orthogonalLoop=1;jettySize=auto;html=1;exitX=0.5;exitY=1;exitDx=0;exitDy=0;entryX=0.583;entryY=0.017;entryDx=0;entryDy=0;entryPerimeter=0;" edge="1" parent="1" source="D8E67NKvFNB2xhjaw_b6-53" target="D8E67NKvFNB2xhjaw_b6-58">
          <mxGeometry relative="1" as="geometry" />
        </mxCell>
        <mxCell id="D8E67NKvFNB2xhjaw_b6-70" style="edgeStyle=orthogonalEdgeStyle;rounded=0;orthogonalLoop=1;jettySize=auto;html=1;exitX=0.5;exitY=1;exitDx=0;exitDy=0;" edge="1" parent="1" source="D8E67NKvFNB2xhjaw_b6-71" target="D8E67NKvFNB2xhjaw_b6-68">
          <mxGeometry relative="1" as="geometry" />
        </mxCell>
        <mxCell id="D8E67NKvFNB2xhjaw_b6-71" value="Выбор русского языка" style="rounded=0;whiteSpace=wrap;html=1;" vertex="1" parent="1">
          <mxGeometry x="286.23530847886036" y="729.0588235294117" width="77.5" height="60" as="geometry" />
        </mxCell>
        <mxCell id="D8E67NKvFNB2xhjaw_b6-72" style="edgeStyle=orthogonalEdgeStyle;rounded=0;orthogonalLoop=1;jettySize=auto;html=1;exitX=0.5;exitY=1;exitDx=0;exitDy=0;" edge="1" parent="1" source="D8E67NKvFNB2xhjaw_b6-73" target="D8E67NKvFNB2xhjaw_b6-68">
          <mxGeometry relative="1" as="geometry" />
        </mxCell>
        <mxCell id="D8E67NKvFNB2xhjaw_b6-73" value="Выбор английского языка" style="rounded=0;whiteSpace=wrap;html=1;" vertex="1" parent="1">
          <mxGeometry x="376.23530847886036" y="729.0588235294117" width="80" height="60" as="geometry" />
        </mxCell>
        <mxCell id="D8E67NKvFNB2xhjaw_b6-74" style="edgeStyle=orthogonalEdgeStyle;rounded=0;orthogonalLoop=1;jettySize=auto;html=1;exitX=0.5;exitY=1;exitDx=0;exitDy=0;" edge="1" parent="1" source="D8E67NKvFNB2xhjaw_b6-75" target="D8E67NKvFNB2xhjaw_b6-77">
          <mxGeometry relative="1" as="geometry" />
        </mxCell>
        <mxCell id="D8E67NKvFNB2xhjaw_b6-75" value="Завершение упражнения по его выполнению или истечению времени" style="rounded=0;whiteSpace=wrap;html=1;" vertex="1" parent="1">
          <mxGeometry x="578.7353084788604" y="969.0588235294117" width="145" height="60" as="geometry" />
        </mxCell>
        <mxCell id="D8E67NKvFNB2xhjaw_b6-76" style="edgeStyle=orthogonalEdgeStyle;rounded=0;orthogonalLoop=1;jettySize=auto;html=1;exitX=0.5;exitY=1;exitDx=0;exitDy=0;" edge="1" parent="1" source="D8E67NKvFNB2xhjaw_b6-77" target="D8E67NKvFNB2xhjaw_b6-78">
          <mxGeometry relative="1" as="geometry" />
        </mxCell>
        <mxCell id="D8E67NKvFNB2xhjaw_b6-77" value="Переход к следующему упражнению" style="rounded=0;whiteSpace=wrap;html=1;" vertex="1" parent="1">
          <mxGeometry x="578.7353084788604" y="1069.0588235294117" width="145" height="60" as="geometry" />
        </mxCell>
        <mxCell id="D8E67NKvFNB2xhjaw_b6-78" value="Конец" style="ellipse;whiteSpace=wrap;html=1;" vertex="1" parent="1">
          <mxGeometry x="576.2353084788604" y="1169.0588235294117" width="150" height="50" as="geometry" />
        </mxCell>
      </root>
    </mxGraphModel>
  </diagram>
  <diagram name="Страница — 2" id="PfpHl6h1P6XuELef2ILh">
    <mxGraphModel dx="960" dy="670" grid="1" gridSize="10" guides="1" tooltips="1" connect="1" arrows="1" fold="1" page="1" pageScale="1" pageWidth="827" pageHeight="1169" math="0" shadow="0">
      <root>
        <mxCell id="0" />
        <mxCell id="1" parent="0" />
        <mxCell id="RRxol67v5j06spIQUg35-2" value="Клавиатурный тренажер" style="rounded=0;whiteSpace=wrap;html=1;" parent="1" vertex="1">
          <mxGeometry x="340" y="170" width="160" height="80" as="geometry" />
        </mxCell>
        <mxCell id="RRxol67v5j06spIQUg35-7" value="" style="endArrow=classic;html=1;rounded=0;entryX=0.5;entryY=0;entryDx=0;entryDy=0;" parent="1" edge="1">
          <mxGeometry width="50" height="50" relative="1" as="geometry">
            <mxPoint x="385" y="70" as="sourcePoint" />
            <mxPoint x="385" y="170" as="targetPoint" />
          </mxGeometry>
        </mxCell>
        <mxCell id="RRxol67v5j06spIQUg35-8" value="" style="endArrow=classic;html=1;rounded=0;" parent="1" edge="1">
          <mxGeometry width="50" height="50" relative="1" as="geometry">
            <mxPoint x="369" y="350" as="sourcePoint" />
            <mxPoint x="368.71" y="250" as="targetPoint" />
          </mxGeometry>
        </mxCell>
        <mxCell id="RRxol67v5j06spIQUg35-9" value="Пользователь" style="text;html=1;align=center;verticalAlign=middle;whiteSpace=wrap;rounded=0;" parent="1" vertex="1">
          <mxGeometry x="324" y="350" width="90" height="40" as="geometry" />
        </mxCell>
        <mxCell id="RRxol67v5j06spIQUg35-12" value="" style="endArrow=classic;html=1;rounded=0;entryX=0.5;entryY=0;entryDx=0;entryDy=0;" parent="1" edge="1">
          <mxGeometry width="50" height="50" relative="1" as="geometry">
            <mxPoint x="220" y="209.66" as="sourcePoint" />
            <mxPoint x="340" y="209.66" as="targetPoint" />
          </mxGeometry>
        </mxCell>
        <mxCell id="RRxol67v5j06spIQUg35-17" value="Результат выполнения упражнения" style="text;html=1;align=center;verticalAlign=middle;whiteSpace=wrap;rounded=0;" parent="1" vertex="1">
          <mxGeometry x="490" y="150" width="150" height="40" as="geometry" />
        </mxCell>
        <mxCell id="RRxol67v5j06spIQUg35-18" value="" style="endArrow=classic;html=1;rounded=0;entryX=0.5;entryY=0;entryDx=0;entryDy=0;" parent="1" edge="1">
          <mxGeometry width="50" height="50" relative="1" as="geometry">
            <mxPoint x="500" y="189.31" as="sourcePoint" />
            <mxPoint x="620" y="189.31" as="targetPoint" />
          </mxGeometry>
        </mxCell>
        <mxCell id="RRxol67v5j06spIQUg35-19" value="Подсчет статистики пользователя" style="text;html=1;align=center;verticalAlign=middle;whiteSpace=wrap;rounded=0;" parent="1" vertex="1">
          <mxGeometry x="490" y="200" width="150" height="40" as="geometry" />
        </mxCell>
        <mxCell id="RRxol67v5j06spIQUg35-20" value="" style="endArrow=classic;html=1;rounded=0;entryX=0.5;entryY=0;entryDx=0;entryDy=0;" parent="1" edge="1">
          <mxGeometry width="50" height="50" relative="1" as="geometry">
            <mxPoint x="500" y="239.31" as="sourcePoint" />
            <mxPoint x="620" y="239.31" as="targetPoint" />
          </mxGeometry>
        </mxCell>
        <mxCell id="5M9KyZQH4md8HhDi6mQd-3" value="" style="endArrow=classic;html=1;rounded=0;" edge="1" parent="1">
          <mxGeometry width="50" height="50" relative="1" as="geometry">
            <mxPoint x="475" y="350" as="sourcePoint" />
            <mxPoint x="474.71000000000004" y="250" as="targetPoint" />
          </mxGeometry>
        </mxCell>
        <mxCell id="5M9KyZQH4md8HhDi6mQd-4" value="Ввод с клавиатуры" style="text;html=1;align=center;verticalAlign=middle;whiteSpace=wrap;rounded=0;" vertex="1" parent="1">
          <mxGeometry x="430" y="350" width="90" height="40" as="geometry" />
        </mxCell>
        <mxCell id="KL-1bCHUAIyQr3pa5ZV7-1" value="Взаимодействие с кнопками через графический интерфейс" style="text;html=1;align=center;verticalAlign=middle;whiteSpace=wrap;rounded=0;" vertex="1" parent="1">
          <mxGeometry x="190" y="140" width="150" height="70" as="geometry" />
        </mxCell>
        <mxCell id="X9bo4UaA5AR2h7ykew9T-1" value="Загрузка данных для выбранного языка и упражнения" style="text;html=1;align=center;verticalAlign=middle;whiteSpace=wrap;rounded=0;" vertex="1" parent="1">
          <mxGeometry x="264" y="10" width="150" height="70" as="geometry" />
        </mxCell>
        <mxCell id="X9bo4UaA5AR2h7ykew9T-2" value="" style="endArrow=classic;html=1;rounded=0;entryX=0.5;entryY=0;entryDx=0;entryDy=0;" edge="1" parent="1">
          <mxGeometry width="50" height="50" relative="1" as="geometry">
            <mxPoint x="470" y="70" as="sourcePoint" />
            <mxPoint x="470" y="170" as="targetPoint" />
          </mxGeometry>
        </mxCell>
        <mxCell id="7YEqOo2hA3k6YRbllCXL-1" value="Алгоритм для подсчета скорости набираемого текста и количества ошибок" style="text;html=1;align=center;verticalAlign=middle;whiteSpace=wrap;rounded=0;" vertex="1" parent="1">
          <mxGeometry x="440" y="20" width="150" height="70" as="geometry" />
        </mxCell>
      </root>
    </mxGraphModel>
  </diagram>
  <diagram name="Страница — 3" id="FoCMxkQF5uQiseDiM2s6">
    <mxGraphModel dx="1920" dy="1340" grid="1" gridSize="10" guides="1" tooltips="1" connect="1" arrows="1" fold="1" page="1" pageScale="1" pageWidth="827" pageHeight="1169" math="0" shadow="0">
      <root>
        <mxCell id="0" />
        <mxCell id="1" parent="0" />
        <mxCell id="hp1st4-QaeCIAPD0HRa8-6" style="edgeStyle=orthogonalEdgeStyle;rounded=0;orthogonalLoop=1;jettySize=auto;html=1;exitX=0.5;exitY=0;exitDx=0;exitDy=0;" edge="1" parent="1" source="9Q4Tgh1-3ajdd9bdv6M_-3" target="9Q4Tgh1-3ajdd9bdv6M_-8">
          <mxGeometry relative="1" as="geometry" />
        </mxCell>
        <mxCell id="vYZGdPe2mnqeh4y1uY2U-1" style="edgeStyle=orthogonalEdgeStyle;rounded=0;orthogonalLoop=1;jettySize=auto;html=1;exitX=0.5;exitY=0;exitDx=0;exitDy=0;entryX=0.25;entryY=1;entryDx=0;entryDy=0;" edge="1" parent="1" source="9Q4Tgh1-3ajdd9bdv6M_-3" target="d34JuaLKaO7JjQiG4dWJ-1">
          <mxGeometry relative="1" as="geometry" />
        </mxCell>
        <mxCell id="9Q4Tgh1-3ajdd9bdv6M_-3" value="Пользователь" style="text;html=1;align=center;verticalAlign=middle;whiteSpace=wrap;rounded=0;" parent="1" vertex="1">
          <mxGeometry x="363" y="380" width="110" height="30" as="geometry" />
        </mxCell>
        <mxCell id="hp1st4-QaeCIAPD0HRa8-5" style="edgeStyle=orthogonalEdgeStyle;rounded=0;orthogonalLoop=1;jettySize=auto;html=1;exitX=1;exitY=0.5;exitDx=0;exitDy=0;entryX=0;entryY=0.5;entryDx=0;entryDy=0;" edge="1" parent="1" source="9Q4Tgh1-3ajdd9bdv6M_-6" target="9Q4Tgh1-3ajdd9bdv6M_-8">
          <mxGeometry relative="1" as="geometry" />
        </mxCell>
        <mxCell id="9Q4Tgh1-3ajdd9bdv6M_-6" value="Взаимодействие с кнопками через графический интерфейс" style="text;html=1;align=center;verticalAlign=middle;whiteSpace=wrap;rounded=0;" parent="1" vertex="1">
          <mxGeometry x="140" y="220" width="150" height="70" as="geometry" />
        </mxCell>
        <mxCell id="d34JuaLKaO7JjQiG4dWJ-4" style="edgeStyle=orthogonalEdgeStyle;rounded=0;orthogonalLoop=1;jettySize=auto;html=1;exitX=1;exitY=0.5;exitDx=0;exitDy=0;entryX=0;entryY=0.5;entryDx=0;entryDy=0;" parent="1" source="9Q4Tgh1-3ajdd9bdv6M_-8" target="d34JuaLKaO7JjQiG4dWJ-1" edge="1">
          <mxGeometry relative="1" as="geometry" />
        </mxCell>
        <mxCell id="9Q4Tgh1-3ajdd9bdv6M_-8" value="Выбор упражнения" style="rounded=0;whiteSpace=wrap;html=1;" parent="1" vertex="1">
          <mxGeometry x="340" y="220" width="156" height="70" as="geometry" />
        </mxCell>
        <mxCell id="d34JuaLKaO7JjQiG4dWJ-12" style="edgeStyle=orthogonalEdgeStyle;rounded=0;orthogonalLoop=1;jettySize=auto;html=1;exitX=1;exitY=0.5;exitDx=0;exitDy=0;entryX=0;entryY=0.5;entryDx=0;entryDy=0;" parent="1" source="d34JuaLKaO7JjQiG4dWJ-1" target="d34JuaLKaO7JjQiG4dWJ-8" edge="1">
          <mxGeometry relative="1" as="geometry" />
        </mxCell>
        <mxCell id="d34JuaLKaO7JjQiG4dWJ-1" value="Выполнение упражнения" style="rounded=0;whiteSpace=wrap;html=1;" parent="1" vertex="1">
          <mxGeometry x="550" y="260" width="156" height="70" as="geometry" />
        </mxCell>
        <mxCell id="d34JuaLKaO7JjQiG4dWJ-14" style="edgeStyle=orthogonalEdgeStyle;rounded=0;orthogonalLoop=1;jettySize=auto;html=1;exitX=1;exitY=0.5;exitDx=0;exitDy=0;entryX=0;entryY=0.5;entryDx=0;entryDy=0;" parent="1" source="d34JuaLKaO7JjQiG4dWJ-8" target="d34JuaLKaO7JjQiG4dWJ-13" edge="1">
          <mxGeometry relative="1" as="geometry" />
        </mxCell>
        <mxCell id="d34JuaLKaO7JjQiG4dWJ-8" value="Подсчет итоговой статистики пользователя" style="rounded=0;whiteSpace=wrap;html=1;" parent="1" vertex="1">
          <mxGeometry x="750" y="210" width="156" height="70" as="geometry" />
        </mxCell>
        <mxCell id="d34JuaLKaO7JjQiG4dWJ-10" style="edgeStyle=orthogonalEdgeStyle;rounded=0;orthogonalLoop=1;jettySize=auto;html=1;exitX=0.5;exitY=1;exitDx=0;exitDy=0;" parent="1" source="d34JuaLKaO7JjQiG4dWJ-9" target="d34JuaLKaO7JjQiG4dWJ-1" edge="1">
          <mxGeometry relative="1" as="geometry">
            <mxPoint x="628" y="150" as="targetPoint" />
          </mxGeometry>
        </mxCell>
        <mxCell id="d34JuaLKaO7JjQiG4dWJ-9" value="Загрузка данных для выбранного языка и упражнения" style="text;html=1;align=center;verticalAlign=middle;whiteSpace=wrap;rounded=0;" parent="1" vertex="1">
          <mxGeometry x="553" y="130" width="150" height="70" as="geometry" />
        </mxCell>
        <mxCell id="d34JuaLKaO7JjQiG4dWJ-13" value="Результат выполнения упражнения" style="text;html=1;align=center;verticalAlign=middle;whiteSpace=wrap;rounded=0;" parent="1" vertex="1">
          <mxGeometry x="950" y="220" width="150" height="50" as="geometry" />
        </mxCell>
        <mxCell id="d34JuaLKaO7JjQiG4dWJ-16" style="edgeStyle=orthogonalEdgeStyle;rounded=0;orthogonalLoop=1;jettySize=auto;html=1;exitX=0.5;exitY=1;exitDx=0;exitDy=0;" parent="1" source="d34JuaLKaO7JjQiG4dWJ-15" target="d34JuaLKaO7JjQiG4dWJ-8" edge="1">
          <mxGeometry relative="1" as="geometry" />
        </mxCell>
        <mxCell id="d34JuaLKaO7JjQiG4dWJ-15" value="Алгоритм для подсчета скорости набираемого текста и количества ошибок" style="text;html=1;align=center;verticalAlign=middle;whiteSpace=wrap;rounded=0;" parent="1" vertex="1">
          <mxGeometry x="753" y="80" width="150" height="70" as="geometry" />
        </mxCell>
        <mxCell id="hp1st4-QaeCIAPD0HRa8-1" style="edgeStyle=orthogonalEdgeStyle;rounded=0;orthogonalLoop=1;jettySize=auto;html=1;exitX=0.5;exitY=0;exitDx=0;exitDy=0;" edge="1" parent="1" source="Kv5GrR_9W_7940J9x5uV-1" target="d34JuaLKaO7JjQiG4dWJ-1">
          <mxGeometry relative="1" as="geometry" />
        </mxCell>
        <mxCell id="Kv5GrR_9W_7940J9x5uV-1" value="Ввод с клавиатуры" style="text;html=1;align=center;verticalAlign=middle;whiteSpace=wrap;rounded=0;" vertex="1" parent="1">
          <mxGeometry x="573" y="390" width="110" height="30" as="geometry" />
        </mxCell>
      </root>
    </mxGraphModel>
  </diagram>
</mxfile>
